<svg aria-hidden="true" style="position:absolute;width:0;height:0" xmlns="http://www.w3.org/2000/svg" overflow="hidden">
    <defs>
        <symbol id="icon-menu3" viewBox="0 0 44 32">
            <path d="M0 6h28v6h-28v-6zM0 14h28v6h-28v-6zM0 22h28v6h-28v-6z"></path>
            <path d="M31 14l6 6 6-6z"></path>
        </symbol>
        <symbol id="icon-cross" viewBox="0 0 32 32">
            <path
                d="M31.708 25.708c-0-0-0-0-0-0l-9.708-9.708 9.708-9.708c0-0 0-0 0-0 0.105-0.105 0.18-0.227 0.229-0.357 0.133-0.356 0.057-0.771-0.229-1.057l-4.586-4.586c-0.286-0.286-0.702-0.361-1.057-0.229-0.13 0.048-0.252 0.124-0.357 0.228 0 0-0 0-0 0l-9.708 9.708-9.708-9.708c-0-0-0-0-0-0-0.105-0.104-0.227-0.18-0.357-0.228-0.356-0.133-0.771-0.057-1.057 0.229l-4.586 4.586c-0.286 0.286-0.361 0.702-0.229 1.057 0.049 0.13 0.124 0.252 0.229 0.357 0 0 0 0 0 0l9.708 9.708-9.708 9.708c-0 0-0 0-0 0-0.104 0.105-0.18 0.227-0.229 0.357-0.133 0.355-0.057 0.771 0.229 1.057l4.586 4.586c0.286 0.286 0.702 0.361 1.057 0.229 0.13-0.049 0.252-0.124 0.357-0.229 0-0 0-0 0-0l9.708-9.708 9.708 9.708c0 0 0 0 0 0 0.105 0.105 0.227 0.18 0.357 0.229 0.356 0.133 0.771 0.057 1.057-0.229l4.586-4.586c0.286-0.286 0.362-0.702 0.229-1.057-0.049-0.13-0.124-0.252-0.229-0.357z">
            </path>
        </symbol>
        <symbol id="tviter" viewBox="0 0 32 32">
            <path fill-rule="evenodd"
                d="M15.558,0.239 C14.923,0.616 14.220,0.888 13.473,1.36 C12.874,0.397 12.21,0.0 11.77,0.0 C9.264,0.0 7.794,1.469 7.794,3.281 C7.794,3.538 7.824,3.789 7.879,4.29 C5.152,3.892 2.733,2.585 1.114,0.599 C0.831,1.83 0.670,1.647 0.670,2.249 C0.670,3.388 1.250,4.393 2.130,4.981 C1.592,4.963 1.86,4.815 0.643,4.569 L0.643,4.610 C0.643,6.200 1.775,7.527 3.276,7.829 C3.1,7.903 2.711,7.944 2.411,7.944 C2.199,7.944 1.994,7.923 1.793,7.885 C2.211,9.189 3.423,10.138 4.859,10.165 C3.736,11.45 2.320,11.569 0.783,11.569 C0.517,11.569 0.256,11.554 0.0,11.525 C1.452,12.455 3.177,12.999 5.31,12.999 C11.68,12.999 14.370,7.997 14.370,3.659 L14.359,3.234 C15.2,2.773 15.560,2.195 15.999,1.537 C15.411,1.798 14.779,1.975 14.115,2.54 C14.793,1.648 15.312,1.4 15.558,0.239 Z" />
        </symbol>
        <symbol id="fasebuk" viewBox="0 0 32 32">
            <path fill-rule="evenodd"
                d="M1.729,3.679 C1.729,4.158 1.729,6.295 1.729,6.295 L0.0,6.295 L0.0,9.494 L1.729,9.494 L1.729,18.999 L5.281,18.999 L5.281,9.494 L7.664,9.494 C7.664,9.494 7.887,7.960 7.996,6.283 C7.685,6.283 5.294,6.283 5.294,6.283 C5.294,6.283 5.294,4.422 5.294,4.96 C5.294,3.769 5.681,3.329 6.64,3.329 C6.446,3.329 7.253,3.329 7.999,3.329 C7.999,2.894 7.999,1.389 7.999,0.0 C7.2,0.0 5.868,0.0 5.368,0.0 C1.641,0.0 1.729,3.201 1.729,3.679 Z" />
        </symbol>
        <symbol id="icon-next" viewBox="0 0 19 32">
            <path fill="none" stroke="#faf9f8" style="stroke:var(--color1, #faf9f8)" stroke-width="5.333"
                d="M2.667 2.667 13.334 16 2.667 29.333" />
        </symbol>
        <symbol id="icon-pagination" viewBox="0 0 19 32">
            <path fill="none" stroke="#595959" stroke-width="5.333" d="M2.667 2.667 13.334 16 2.667 29.333" />
        </symbol>
        <symbol id="instagram" viewBox="0 0 32 32">
            <path fill-rule="evenodd"
                d="M1.924,0.1 L13.75,0.1 C14.133,0.1 15.0,0.783 15.0,1.924 L15.0,13.74 C15.0,14.216 14.133,15.0 13.75,15.0 L1.924,15.0 C0.865,15.0 0.0,14.216 0.0,13.74 L0.0,1.924 C0.0,0.783 0.865,0.1 1.924,0.1 L1.924,0.1 ZM10.926,1.665 C10.555,1.665 10.251,1.969 10.251,2.341 L10.251,3.957 C10.251,4.329 10.555,4.632 10.926,4.632 L12.622,4.632 C12.993,4.632 13.297,4.329 13.297,3.957 L13.297,2.341 C13.297,1.969 12.993,1.665 12.622,1.665 L10.926,1.665 L10.926,1.665 ZM13.304,6.342 L11.984,6.342 C12.109,6.750 12.177,7.182 12.177,7.629 C12.177,10.125 10.89,12.147 7.513,12.147 C4.939,12.147 2.851,10.125 2.851,7.629 C2.851,7.182 2.918,6.750 3.43,6.342 L1.666,6.342 L1.666,12.679 C1.666,13.7 1.934,13.275 2.262,13.275 L12.708,13.275 C13.36,13.275 13.305,13.7 13.305,12.679 L13.305,6.342 L13.304,6.342 ZM7.513,4.547 C5.850,4.547 4.501,5.854 4.501,7.466 C4.501,9.79 5.850,10.386 7.513,10.386 C9.177,10.386 10.527,9.79 10.527,7.466 C10.527,5.854 9.178,4.547 7.513,4.547 Z" />
            <symbol id="odnoklasniki" viewBox="0 0 32 32">
                <path fill-rule="evenodd"
                    d="M11.686,11.506 C11.67,12.109 10.323,12.546 9.496,12.851 C8.714,13.139 7.858,13.284 7.10,13.380 C7.138,13.513 7.198,13.578 7.278,13.654 C8.429,14.753 9.585,15.848 10.732,16.950 C11.123,17.326 11.205,17.791 10.989,18.229 C10.754,18.706 10.227,19.20 9.711,18.987 C9.384,18.965 9.128,18.810 8.902,18.593 C8.33,17.763 7.148,16.947 6.298,16.101 C6.50,15.854 5.931,15.901 5.712,16.115 C4.838,16.970 3.950,17.812 3.57,18.649 C2.656,19.25 2.179,19.92 1.714,18.878 C1.219,18.650 0.905,18.170 0.929,17.688 C0.946,17.362 1.114,17.113 1.350,16.889 C2.489,15.809 3.625,14.725 4.761,13.642 C4.836,13.570 4.906,13.493 5.16,13.382 C3.466,13.228 2.69,12.866 0.873,11.976 C0.725,11.866 0.571,11.759 0.436,11.636 C0.86,11.158 0.139,10.610 0.274,10.46 C0.628,9.563 1.223,9.434 1.842,9.711 C1.961,9.765 2.76,9.832 2.185,9.904 C4.414,11.360 7.476,11.400 9.714,9.970 C9.936,9.808 10.173,9.677 10.447,9.609 C10.981,9.479 11.479,9.666 11.766,10.109 C12.93,10.617 12.89,11.112 11.686,11.506 ZM5.960,9.617 C3.196,9.608 0.929,7.429 0.945,4.798 C0.961,2.137 3.229,0.6 6.21,0.0 C8.818,0.7 11.63,2.183 11.49,4.871 C11.35,7.497 8.752,9.626 5.960,9.617 ZM6.1,2.456 C4.617,2.455 3.512,3.514 3.523,4.832 C3.533,6.134 4.638,7.167 6.13,7.162 C7.385,7.158 8.477,6.110 8.472,4.804 C8.467,3.497 7.372,2.457 6.1,2.456 Z" />
            </symbol>
            <symbol id="vkontakte" viewBox="0 0 32 32">
                <path fill-rule="evenodd"
                    d="M19.795,8.265 C20.558,9.9 21.363,9.709 22.47,10.528 C22.349,10.893 22.636,11.268 22.855,11.690 C23.165,12.291 22.884,12.951 22.345,12.987 L18.994,12.986 C18.130,13.57 17.440,12.710 16.861,12.120 C16.397,11.648 15.967,11.146 15.521,10.658 C15.338,10.458 15.147,10.271 14.918,10.122 C14.461,9.826 14.64,9.917 13.802,10.393 C13.536,10.878 13.476,11.414 13.449,11.954 C13.413,12.742 13.175,12.950 12.382,12.986 C10.689,13.66 9.81,12.810 7.588,11.956 C6.271,11.204 5.250,10.142 4.362,8.939 C2.631,6.598 1.306,4.25 0.116,1.380 C0.151,0.784 0.44,0.464 0.702,0.453 C1.795,0.432 2.888,0.433 3.982,0.451 C4.427,0.458 4.721,0.713 4.892,1.132 C5.484,2.584 6.207,3.966 7.116,5.247 C7.358,5.588 7.604,5.929 7.956,6.169 C8.344,6.435 8.640,6.347 8.823,5.914 C8.939,5.640 8.990,5.345 9.16,5.51 C9.102,4.41 9.114,3.33 8.962,2.26 C8.869,1.398 8.514,0.991 7.887,0.872 C7.566,0.812 7.614,0.693 7.769,0.510 C8.39,0.195 8.292,0.0 8.797,0.0 L12.584,0.0 C13.180,0.117 13.312,0.384 13.394,0.983 L13.397,5.185 C13.391,5.417 13.513,6.105 13.931,6.258 C14.266,6.368 14.487,6.100 14.688,5.888 C15.594,4.927 16.241,3.791 16.820,2.615 C17.76,2.98 17.297,1.561 17.510,1.24 C17.669,0.626 17.917,0.430 18.367,0.439 L22.11,0.442 C22.119,0.442 22.229,0.444 22.333,0.461 C22.947,0.566 23.116,0.830 22.926,1.429 C22.627,2.369 22.46,3.152 21.477,3.939 C20.869,4.779 20.219,5.590 19.617,6.435 C19.63,7.206 19.107,7.595 19.795,8.265 L19.795,8.265 Z" />
            </symbol>

    </defs>
</svg>